<svg id="Layer_5" enable-background="new 0 0 64 64" height="512" viewBox="0 0 64 64" width="512" xmlns="http://www.w3.org/2000/svg"><path d="m43 45h-6v3h-3v6h3v3h6v-3h3v-6h-3zm1 5v2h-3v3h-2v-3h-3v-2h3v-3h2v3z"/><path d="m40.216 39.002-10.99-4.885 2.931 7.815c-2.651 2.287-4.157 5.551-4.157 9.068 0 6.617 5.383 12 12 12s12-5.383 12-12c0-6.544-5.266-11.882-11.784-11.998zm-.216 21.998c-5.514 0-10-4.486-10-10 0-3.138 1.44-6.035 3.952-7.949l.591-.451-1.769-4.717 7.014 3.117h.212c5.514 0 10 4.486 10 10s-4.486 10-10 10z"/><path d="m49 25c3.86 0 7-3.14 7-7v-.338c0-1.269-.345-2.514-.998-3.602l-6.002-10.003-6.002 10.003c-.653 1.088-.998 2.334-.998 3.602v.338c0 3.86 3.14 7 7 7zm-5-7.338c0-.906.247-1.796.712-2.573l4.288-7.146 4.288 7.146c.465.777.712 1.667.712 2.573v.338c0 2.757-2.243 5-5 5s-5-2.243-5-5z"/><path d="m36.006 31.379 13.086-2.379c7.678-.05 13.908-6.311 13.908-14 0-7.72-6.28-14-14-14s-14 6.28-14 14c0 3.983 1.669 7.717 4.61 10.373zm.994-16.379c0-6.617 5.383-12 12-12s12 5.383 12 12-5.383 12-12 12l-9.006 1.621 2.218-3.696-.684-.546c-2.878-2.296-4.528-5.714-4.528-9.379z"/><path d="m51 30h10v2h-10z"/><path d="m51 34h10v2h-10z"/><path d="m51 38h2v2h-2z"/><path d="m59 38h2v2h-2z"/><path d="m55 38h2v2h-2z"/><path d="m32.551 19.838c1.013-1.958.245-4.376-1.713-5.39-.567-.293-1.202-.448-1.839-.448-1.499 0-2.86.827-3.552 2.16l-.596 1.158c-.967 1.887-2.291 4.472-2.843 4.682-.367-.028-1.676-.736-4.354-3.033 4.657-.338 8.346-4.225 8.346-8.967 0-4.962-4.038-9-9-9s-9 4.038-9 9c0 2.365.924 4.513 2.421 6.121-6.249.888-9.421 7.22-9.421 18.879 0 3.294 1.397 6.104 3.596 8.334l-2.425 13.349c-.352 1.289-.181 2.638.482 3.799.663 1.159 1.738 1.991 3.027 2.343.429.116.872.175 1.315.175 2.248 0 4.231-1.515 4.842-3.769l1.973-10.843c.725.19 1.455.356 2.19.477l.002 8.957c0 2.644 1.979 4.907 4.504 5.153.162.017.325.025.486.025 1.239 0 2.444-.46 3.367-1.296 1.044-.947 1.643-2.297 1.643-3.703v-10.001c0-4.71-2.692-8.608-8.002-11.592v-7.28c1.202.522 2.549.872 3.999.872 4.369 0 8.15-5.525 10.552-10.162zm-15.551-16.838c3.86 0 7 3.14 7 7s-3.14 7-7 7c-.968 0-1.89-.198-2.729-.554-.03-.012-.057-.03-.087-.042-2.46-1.086-4.184-3.546-4.184-6.404 0-3.86 3.14-7 7-7zm-7.111 55.79c-.356 1.301-1.546 2.21-2.894 2.21-.266 0-.531-.036-.789-.106-.774-.211-1.419-.71-1.817-1.406s-.5-1.506-.27-2.363l2.233-12.268c1.63 1.235 3.519 2.23 5.532 2.947zm6.111-30.749v9.559l.529.282c4.958 2.646 7.473 6.05 7.473 10.118v10c0 .843-.36 1.653-.987 2.222-.635.576-1.458.846-2.315.764-1.513-.147-2.698-1.537-2.698-3.163l-.002-10.706-.876-.109c-7.019-.878-14.124-5.284-14.124-12.008 0-4.205 0-17 9-17 .5 0 .987.092 1.443.264.031.013.062.028.094.041.435.177.841.424 1.194.745 5.435 4.95 6.768 4.95 7.269 4.95 1.674 0 2.787-2.172 4.631-5.77l.591-1.149c.493-.95 1.745-1.351 2.697-.856.979.507 1.363 1.715.857 2.694-2.991 5.771-6.191 9.081-8.777 9.081-3.68 0-6.977-3.016-8.207-4.61l-1.584 1.221c.099.128 1.519 1.942 3.792 3.43z"/></svg>